<svg width="129" height="159" viewBox="0 0 129 159" fill="none" xmlns="http://www.w3.org/2000/svg">
<g id="Group">
<path id="Vector" d="M21 129.1L64.1 54.4L107.3 129.1H21Z" fill="#0B7077"/>
<path id="Vector_2" d="M128.2 47.2L64.1 158.2L0.0999908 47.2H128.2Z" fill="#FD661F"/>
<g id="Group_2">
<g id="Clip path group">
<mask id="mask0_1_879" style="mask-type:luminance" maskUnits="userSpaceOnUse" x="0" y="0" width="129" height="159">
<g id="SVGID_00000063605355165051911800000008039431241741399443_">
<path id="Vector_3" d="M101.3 47.2V0.400024H27V47.2H0.0999908L64.1 158.2L128.2 47.2H101.3Z" fill="white"/>
</g>
</mask>
<g mask="url(#mask0_1_879)">
<g id="Group_3">
<path id="Vector_4" d="M95.7 103.1C84.5 94.9 75.9 90.6 75.9 85.9C75.9 81.3 75.9 75.3 75.9 75.3H64.6H63.8H52.5C52.5 75.3 52.5 81.3 52.5 85.9C52.5 90.5 43.9 94.9 32.7 103.1C21.5 111.3 21.2 131.1 21.2 131.1H63.9H64.8H107.5C107.3 131.1 107 111.2 95.7 103.1Z" fill="url(#paint0_linear_1_879)"/>
<path id="Vector_5" d="M95.7 103.1C84.5 94.9 75.9 90.6 75.9 85.9C75.9 81.3 75.9 75.3 75.9 75.3H64.6H64.2V131.1H64.6H107.3C107.3 131.1 107 111.2 95.7 103.1Z" fill="url(#paint1_linear_1_879)"/>
<path id="Vector_6" d="M83 94.1C78.6 91 75.9 88.5 75.9 85.9C75.9 81.3 75.9 75.3 75.9 75.3H64.6H63.8H52.5C52.5 75.3 52.5 76.2 52.5 77.5C53.3 79.3 57 87.2 64.3 90.9C70.7 94.2 77.8 95.4 83 94.1Z" fill="url(#paint2_linear_1_879)"/>
<g id="Group_4">
<path id="Vector_7" d="M84 57.7C84 57.7 86 53.5 89.2 54.1C92.4 54.7 91.3 60.1 89.8 63C87.5 67.6 81.9 69 81.8 67.3C81.7 65.6 84 57.7 84 57.7Z" fill="url(#paint3_linear_1_879)"/>
<path id="Vector_8" d="M44.3 57.7C44.3 57.7 42.3 53.5 39.1 54.1C35.9 54.7 37 60.1 38.5 63C40.8 67.6 46.4 69 46.5 67.3C46.6 65.6 44.3 57.7 44.3 57.7Z" fill="url(#paint4_linear_1_879)"/>
</g>
<g id="Group_5">
<path id="Vector_9" d="M40.5 54.2C41.8 60.3 44.2 64.8 46 68C46.3 67.9 46.5 67.7 46.5 67.4C46.6 65.7 44.3 57.8 44.3 57.8C44.3 57.8 42.9 54.7 40.5 54.2Z" fill="url(#paint5_linear_1_879)"/>
<path id="Vector_10" d="M84 57.7C84 57.7 81.7 65.6 81.8 67.3C81.8 67.6 82 67.8 82.3 67.9C84.1 64.7 86.4 60.2 87.8 54.1C85.4 54.7 84 57.7 84 57.7Z" fill="url(#paint6_linear_1_879)"/>
</g>
<path id="Vector_11" d="M86 41.9C84.4 25.4 70.9 22.2 64.1 22.2C57.3 22.2 43.8 25.4 42.2 41.9C40.6 58.4 46.1 68 48.6 73.2C51.1 78.3 59.4 81.6 64 81.6C68.6 81.6 76.9 78.3 79.4 73.2C82.1 68 87.6 58.3 86 41.9Z" fill="url(#paint7_linear_1_879)"/>
<path id="Vector_12" d="M79.5 73.1C82 68 87.5 58.3 85.9 41.8C84.3 25.3 70.8 22.1 64 22.1V81.6C68.8 81.6 77 78.3 79.5 73.1Z" fill="url(#paint8_linear_1_879)"/>
<path id="Vector_13" d="M86 41.9C84.4 25.4 70.9 22.2 64.1 22.2C57.3 22.2 43.8 25.4 42.2 41.9C41.6 47.7 42 52.7 42.7 56.9C42.8 56.7 46 49.8 46.6 45.6C46.6 45.6 47.3 47.3 48.4 47.9C49.4 45.5 50 41.4 49.8 38.1C49.8 38.1 52.4 42.6 60.1 46C60.1 46 59.8 42.5 59.1 40.4C65.8 45.5 73.1 47.5 77.8 47.4C77.8 47.4 77.5 45.2 76.5 43.4C77.1 44.2 78.5 45.5 81.3 46.3C81.3 46.3 83.5 51.8 85.4 56.7C86.2 52.4 86.5 47.6 86 41.9Z" fill="url(#paint9_linear_1_879)"/>
<path id="Vector_14" d="M70.2 70.7H58C57.7 70.7 57.6 71.2 57.7 71.7C58.8 73.8 61.3 75.3 64.1 75.3C66.9 75.3 69.3 73.9 70.5 71.8C70.7 71.4 70.6 70.7 70.2 70.7Z" fill="url(#paint10_linear_1_879)"/>
<path id="Vector_15" d="M69.3 73.4C68.4 72.1 66.4 71.2 64.2 71.2C61.9 71.2 60 72.1 59 73.4C60.3 74.6 62.1 75.3 64.2 75.3C66.2 75.3 68 74.5 69.3 73.4Z" fill="url(#paint11_linear_1_879)"/>
<path id="Vector_16" d="M70.2 70.7H58C58.4 71.3 58.9 71.9 59.7 72.1C61.1 72.4 64.1 72.4 64.1 72.4C64.1 72.4 67.1 72.4 68.5 72.1C69.3 71.9 69.9 71.3 70.2 70.7Z" fill="url(#paint12_linear_1_879)"/>
<g id="Group_6">
<g id="Group_7">
<path id="Vector_17" d="M72.1 52.8C71.1 53.5 70.1 54.7 70.2 56.3C70.2 56.3 71.2 58 75 57.7C78.3 57.4 78.7 54.5 78.7 54.5C77.8 52.9 76 51.3 72.1 52.8Z" fill="white"/>
<path id="Vector_18" d="M56.2 52.8C57.2 53.5 58.2 54.7 58.1 56.3C58.1 56.3 57.1 58 53.3 57.7C50 57.4 49.6 54.5 49.6 54.5C50.5 52.9 52.4 51.3 56.2 52.8Z" fill="white"/>
<path id="Vector_19" d="M77.2 54.7C77.2 56.2 76 57.5 74.4 57.5C72.9 57.5 71.6 56.3 71.6 54.7C71.6 53.2 72.8 51.9 74.4 51.9C76 51.9 77.2 53.1 77.2 54.7Z" fill="url(#paint13_linear_1_879)"/>
<path id="Vector_20" d="M78 54C78 54.5 77.5 54.8 76.9 54.8C76.3 54.8 75.8 54.4 75.8 54C75.8 53.5 76.3 53.2 76.9 53.2C77.5 53.1 78 53.5 78 54Z" fill="white"/>
<path id="Vector_21" d="M69.8 55.8C69.8 55.8 71.6 52.7 74.8 52.7C77.7 52.7 78.8 55 78.8 55L79.8 54C79.8 54 77.7 51.5 74.6 51.7C70.2 52.1 69.8 55.8 69.8 55.8Z" fill="#262B3B"/>
<path id="Vector_22" d="M68.2 49.2C68.2 49.2 70.1 50.1 73.9 49C77.7 47.9 77.9 47.3 80.9 47.1C80.9 47.1 75.9 45.6 72.3 46.8C69.3 48 68.2 49.2 68.2 49.2Z" fill="#262B3B"/>
</g>
<g id="Group_8">
<path id="Vector_23" d="M51 54.7C51 56.2 52.2 57.5 53.8 57.5C55.3 57.5 56.6 56.3 56.6 54.7C56.6 53.2 55.4 51.9 53.8 51.9C52.3 51.9 51 53.1 51 54.7Z" fill="url(#paint14_linear_1_879)"/>
<path id="Vector_24" d="M57.4 54C57.4 54.5 56.9 54.8 56.3 54.8C55.7 54.8 55.2 54.4 55.2 54C55.2 53.5 55.7 53.2 56.3 53.2C56.9 53.1 57.4 53.5 57.4 54Z" fill="white"/>
<path id="Vector_25" d="M58.5 55.8C58.5 55.8 56.7 52.7 53.5 52.7C50.6 52.7 49.5 55 49.5 55L48.5 54C48.5 54 50.6 51.5 53.7 51.7C58 52.1 58.5 55.8 58.5 55.8Z" fill="#262B3B"/>
<path id="Vector_26" d="M60 49.2C60 49.2 58.1 50.1 54.3 49C50.5 47.9 50.3 47.3 47.3 47.1C47.3 47.1 52.3 45.6 55.9 46.8C59 48 60 49.2 60 49.2Z" fill="#262B3B"/>
</g>
</g>
<path id="Vector_27" d="M64.1 66.5C64.1 66.5 62.6 66.4 61.6 65.9C61.6 65.9 62.1 67.8 64.1 68C66.1 67.8 66.6 65.9 66.6 65.9C65.7 66.3 64.1 66.5 64.1 66.5Z" fill="#DD8076"/>
<path id="Vector_28" d="M95.7 103.1C89.7 98.7 84.5 95.5 80.9 92.7L64.1 99.3L47.3 92.7C43.7 95.5 38.5 98.8 32.5 103.1C21.3 111.3 21 131.1 21 131.1V160.1H107.3V131.1C107.3 131.1 107 111.2 95.7 103.1Z" fill="#B88C78"/>
<path id="Vector_29" d="M58.1 160.1H70L87.4 97.3C84.9 95.6 82.7 94.1 80.9 92.7L64.1 99.3L47.3 92.7C45.5 94.1 43.3 95.6 40.8 97.3L58.1 160.1Z" fill="#947060"/>
<path id="Vector_30" d="M80.9 92.6L64.1 153.6L47.3 92.6L64.1 98.6L80.9 92.6Z" fill="url(#paint15_linear_1_879)"/>
<g id="Group_9">
<path id="Vector_31" d="M61.2 108.7L56.3 103.2L64.1 98.6L72 103.2L67.1 108.7H61.2Z" fill="url(#paint16_linear_1_879)"/>
<path id="Vector_32" d="M70.4 131.1L67.1 108.7H61.1L57.9 131.1L64.1 153.6L70.4 131.1Z" fill="url(#paint17_linear_1_879)"/>
</g>
<path id="Vector_33" d="M52.4 85L64.1 97.4V99.8L51.9 109.1L47.3 92.6L52.4 85Z" fill="url(#paint18_linear_1_879)"/>
<path id="Vector_34" d="M75.9 85L64.1 97.4V99.8L76.4 109.1L80.9 92.6L75.9 85Z" fill="url(#paint19_linear_1_879)"/>
<path id="Vector_35" d="M49.2 35.8C49.2 35.8 51.8 40.3 59.5 43.7C59.5 43.7 59.2 40.2 58.5 38.1C65.2 43.2 72.5 45.2 77.2 45.1C77.2 45.1 76.8 42.3 75.4 40.4C75.4 40.4 78 42.9 82.1 44.1C82.1 44.1 84.3 48.9 85.5 56.5C85.5 56.5 90.2 51.7 90.2 40.2C90.2 28.7 85.3 15.9 65.5 13.9L69.4 10.9C60.2 10.2 49.1 11.4 43.5 23.3C43.5 23.3 40.9 21 36.4 22.6C38.2 26.1 41.2 25.6 42.4 25.2C36.2 29.3 36.2 34.8 36.8 41.8C37.4 48.7 39.7 54.4 43.1 56.5C43.1 56.5 45.4 47.5 46 43.4C46 43.4 46.7 45.1 47.8 45.7C48.8 43.3 49.4 39.1 49.2 35.8Z" fill="url(#paint20_linear_1_879)"/>
</g>
</g>
</g>
</g>
</g>
<defs>
<linearGradient id="paint0_linear_1_879" x1="64.1377" y1="118.364" x2="64.1377" y2="81.3" gradientUnits="userSpaceOnUse">
<stop stop-color="#FBDAD0"/>
<stop offset="1" stop-color="#FBB8A6"/>
</linearGradient>
<linearGradient id="paint1_linear_1_879" x1="44.4883" y1="84.849" x2="96.9257" y2="122.515" gradientUnits="userSpaceOnUse">
<stop stop-color="#FBB8A6"/>
<stop offset="1" stop-color="#FBDAD0" stop-opacity="0.1"/>
</linearGradient>
<linearGradient id="paint2_linear_1_879" x1="50.137" y1="68.9699" x2="77.9472" y2="88.9462" gradientUnits="userSpaceOnUse">
<stop stop-color="#FBB8A6"/>
<stop offset="1" stop-color="#FBDAD0" stop-opacity="0.1"/>
</linearGradient>
<linearGradient id="paint3_linear_1_879" x1="86.7271" y1="57.8394" x2="86.2048" y2="69.0044" gradientUnits="userSpaceOnUse">
<stop stop-color="#F3B0A8"/>
<stop offset="1" stop-color="#F5CEB5"/>
</linearGradient>
<linearGradient id="paint4_linear_1_879" x1="41.5474" y1="57.8394" x2="42.0697" y2="69.0044" gradientUnits="userSpaceOnUse">
<stop stop-color="#F3B0A8"/>
<stop offset="1" stop-color="#F5CEB5"/>
</linearGradient>
<linearGradient id="paint5_linear_1_879" x1="43.4979" y1="64.834" x2="43.4979" y2="55.664" gradientUnits="userSpaceOnUse">
<stop stop-color="#FBB8A6"/>
<stop offset="1" stop-color="#FBDAD0" stop-opacity="0.1"/>
</linearGradient>
<linearGradient id="paint6_linear_1_879" x1="84.7761" y1="64.834" x2="84.7761" y2="55.664" gradientUnits="userSpaceOnUse">
<stop stop-color="#FBB8A6"/>
<stop offset="1" stop-color="#FBDAD0" stop-opacity="0.1"/>
</linearGradient>
<linearGradient id="paint7_linear_1_879" x1="64.1376" y1="68.0236" x2="64.1376" y2="28.5897" gradientUnits="userSpaceOnUse">
<stop stop-color="#FBDAD0"/>
<stop offset="1" stop-color="#FBD0C4"/>
</linearGradient>
<linearGradient id="paint8_linear_1_879" x1="46.1163" y1="36.1341" x2="78.9662" y2="59.7305" gradientUnits="userSpaceOnUse">
<stop stop-color="#FBB8A6"/>
<stop offset="1" stop-color="#FBDAD0" stop-opacity="0.1"/>
</linearGradient>
<linearGradient id="paint9_linear_1_879" x1="42.0138" y1="39.5102" x2="86.2609" y2="39.5102" gradientUnits="userSpaceOnUse">
<stop stop-color="#FBB8A6"/>
<stop offset="1" stop-color="#FBDAD0" stop-opacity="0.1"/>
</linearGradient>
<linearGradient id="paint10_linear_1_879" x1="64.1234" y1="70.3403" x2="64.1234" y2="74.792" gradientUnits="userSpaceOnUse">
<stop stop-color="#302869"/>
<stop offset="1" stop-color="#852325"/>
</linearGradient>
<linearGradient id="paint11_linear_1_879" x1="64.1367" y1="71.2867" x2="64.1367" y2="75.3707" gradientUnits="userSpaceOnUse">
<stop stop-color="#851C1E"/>
<stop offset="1" stop-color="#D02D2F"/>
</linearGradient>
<linearGradient id="paint12_linear_1_879" x1="58.0313" y1="71.5595" x2="70.2422" y2="71.5595" gradientUnits="userSpaceOnUse">
<stop stop-color="white"/>
<stop offset="1" stop-color="#BEDFE8"/>
</linearGradient>
<linearGradient id="paint13_linear_1_879" x1="74.4487" y1="51.8968" x2="74.4487" y2="56.8271" gradientUnits="userSpaceOnUse">
<stop stop-color="#252A3B"/>
<stop offset="1" stop-color="#676B78"/>
</linearGradient>
<linearGradient id="paint14_linear_1_879" x1="53.8277" y1="51.8968" x2="53.8277" y2="56.8271" gradientUnits="userSpaceOnUse">
<stop stop-color="#252A3B"/>
<stop offset="1" stop-color="#676B78"/>
</linearGradient>
<linearGradient id="paint15_linear_1_879" x1="64.1386" y1="104.234" x2="64.1386" y2="151.206" gradientUnits="userSpaceOnUse">
<stop stop-color="white"/>
<stop offset="1" stop-color="#CCD6E8"/>
</linearGradient>
<linearGradient id="paint16_linear_1_879" x1="66.1208" y1="109.855" x2="62.6404" y2="98.3039" gradientUnits="userSpaceOnUse">
<stop stop-color="#3B3D45"/>
<stop offset="1" stop-color="#252A3B"/>
</linearGradient>
<linearGradient id="paint17_linear_1_879" x1="72.6158" y1="154.543" x2="58.1864" y2="106.655" gradientUnits="userSpaceOnUse">
<stop stop-color="#3B3D45"/>
<stop offset="1" stop-color="#252A3B"/>
</linearGradient>
<linearGradient id="paint18_linear_1_879" x1="55.7417" y1="85.2164" x2="55.7417" y2="109.347" gradientUnits="userSpaceOnUse">
<stop stop-color="white"/>
<stop offset="1" stop-color="#CCD6E8"/>
</linearGradient>
<linearGradient id="paint19_linear_1_879" x1="72.5341" y1="85.2159" x2="72.5341" y2="109.346" gradientUnits="userSpaceOnUse">
<stop stop-color="white"/>
<stop offset="1" stop-color="#CCD6E8"/>
</linearGradient>
<linearGradient id="paint20_linear_1_879" x1="36.4092" y1="33.6801" x2="90.248" y2="33.6801" gradientUnits="userSpaceOnUse">
<stop stop-color="#3B3D45"/>
<stop offset="1" stop-color="#252A3B"/>
</linearGradient>
</defs>
</svg>
